<svg version="1.1" xmlns="http://www.w3.org/2000/svg" width="158" height="29" viewBox="0 0 438.916 81.641"><path fill="#3372ff" d="M63.007 5.82A24.825 24.825 0 0 0 39.94 4.59s11.93-.25 14.084 8.147c1.546 6.024-2.158 11.722-4.374 14.46a12.018 12.018 0 0 0-1.51 1.694l-.006.01a11.992 11.992 0 0 0 18.62 15.08c12.32-11.82 8.37-31.08-3.747-38.15z"/><circle cx="31.421" cy="6.377" r="6.375" fill="#3372ff"/><path fill="#ff7900" d="M39.796 23.816a11.935 11.935 0 0 0-5.794-4.287v-.01C18.348 12.71 2.092 23.78.237 37.69a24.824 24.824 0 0 0 7.756 21.76s-4.827-10.91 2.09-16.136c4.963-3.748 11.648-2.526 15.03-1.536a12.017 12.017 0 0 0 2.143.74l.008.004v-.002a11.993 11.993 0 0 0 12.532-18.704z"/><circle cx="12.924" cy="66.622" r="6.375" fill="#ff7900"/><path fill="#3bbf28" d="M60.836 68.096c-5.89-2-8.633-8.217-9.714-11.57a12.025 12.025 0 0 0-.592-2.19l-.002-.008A11.992 11.992 0 0 0 27.72 61.67c3.16 16.778 21.45 24.008 33.995 17.73a24.824 24.824 0 0 0 13.643-18.64s-6.314 10.123-14.522 7.336z"/><circle cx="78.522" cy="52.652" r="6.375" fill="#3bbf28"/><path fill="#3372ff" d="M139.265 52.34l-26.587-38.132h-8.607v55.14h9.44v-38l26.59 38h8.61v-55.14h-9.43v38.13zm41.65-.824c0 5.827-3.58 9.593-9.123 9.593-5.286 0-7.967-2.81-7.967-8.33V27.39h-9.287v26.47c0 9.626 6.02 15.846 15.34 15.846 4.744 0 8.61-1.387 11.398-4.047v3.68h8.926V27.39h-9.287v24.12zm44.723-20.436a15.94 15.94 0 0 0-11.076-4.045c-10.627 0-18.048 8.774-18.048 21.337s7.48 21.337 18.193 21.337a15.776 15.776 0 0 0 11.22-4.2v3.83h8.998V11.93h-9.287v19.15zm.035 17.292c0 7.618-3.957 12.736-9.846 12.736-6.003 0-9.882-5-9.882-12.736s3.88-12.736 9.882-12.736c5.89 0 9.846 5.118 9.846 12.736zm33.985-21.337c-11.4 0-19.06 8.633-19.06 21.482 0 12.874 7.594 21.192 19.35 21.192 9.018 0 16.433-5.37 17.632-12.75l.282-1.74h-9.086l-.325 1.06c-.92 3.02-4.13 4.9-8.35 4.9-5.8 0-9.53-3.64-9.95-9.58h27.93v-3.95c0-12.53-7.22-20.62-18.41-20.62zm-.108 8.528c4.843 0 8.195 3.1 8.86 8.02H250.3c.92-4.858 4.48-8.02 9.25-8.02zm39.796 20.147L284.8 14.207h-10.044l20.328 55.14h8.523l20.33-55.14H313.89l-14.546 41.5zm28.167-28.314h9.287v41.95h-9.287z"/><circle cx="332.156" cy="18.635" r="5.475" fill="#3372ff"/><path fill="#3372ff" d="M364.283 45.002l-5.926-1.48c-5.44-1.36-5.44-3.332-5.44-4.075 0-2.496 2.622-4.173 6.522-4.173 3.97 0 6.54 1.715 6.85 4.588l.14 1.338h8.94l-.07-1.56c-.29-7.283-6.878-12.57-15.666-12.57-9.37 0-15.917 5.223-15.917 12.702 0 5.93 3.796 9.918 11.28 11.858l6.83 1.77c4.582 1.193 4.95 2.418 4.95 3.896 0 3.104-3.69 4.21-7.14 4.21-4.58 0-7.17-1.632-7.695-4.85l-.208-1.257h-9.24l.15 1.63c.69 7.58 7.34 12.67 16.56 12.67 9.79 0 16.89-5.4 16.89-12.85 0-7.37-4.727-10.07-11.83-11.86zm28.707-26.386h-9.287v8.78h-5.42V35.6h5.42v22.13c0 8.346 3.377 11.907 11.292 11.907a24.01 24.01 0 0 0 4.394-.366l1.15-.27v-8.27l-1.75.29c-.34.06-1.76.16-2.47.16-2.17 0-3.34-.59-3.34-3.7V35.6h7.58v-8.204h-7.59v-8.78zm29.286 8.42c-9.054 0-16.037 5.612-16.24 13.057l-.044 1.54h8.8l.245-1.197c.61-2.96 3.357-4.8 7.167-4.8 4.927 0 7.425 2.024 7.425 6.015v1.84l-9.51.57c-13.93.85-16.01 8.32-16.01 12.7 0 7.75 5.89 12.96 14.65 12.96a16.21 16.21 0 0 0 11.18-4.33v3.977h8.96V41.11c0-8.55-6.53-14.075-16.64-14.075zm-2.168 34.217c-3.17 0-6.557-1.172-6.557-4.462 0-1.06 0-4.29 7.49-4.75l8.6-.55v1.55c0 4.77-4 8.22-9.52 8.22z"/></svg>